# xmcd CD database file
#
# Track frame offsets:
#	150
#	12986
#	21993
#	29642
#	42686
#	60316
#	63641
#	80230
#	104014
#	115681
#	133498
#	156061
#	175767
#	214007
#
# Disc length: 3143 seconds
#
# Revision: 0
# Processed by: cddbd v1.4PL0 Copyright (c) Steve Scherf et al.
# Submitted via: CDex 1.51
#
DISCID=ce0c450e
DTITLE=Piirpauke - Laulu laineilla
DYEAR=2003
DGENRE=Jazz
TTITLE0=Laulu laineilla
TTITLE1=Virvaliekki
TTITLE2=La Pastorella
TTITLE3=Paimenten tanssi
TTITLE4=Serenadi
TTITLE5=Myrskyinen aamu
TTITLE6=Tyyntyy tyyntyy
TTITLE7=Posetiivinsoittaja
TTITLE8=Minne?
TTITLE9=Sinne!
TTITLE10=Kevättulva
TTITLE11=Keijukaiskuningas
TTITLE12=Matka tuonpuoleiseen
TTITLE13=Kehtolaulu
EXTD=YEAR: 2003
EXTT0=
EXTT1=
EXTT2=
EXTT3=
EXTT4=
EXTT5=
EXTT6=
EXTT7=
EXTT8=
EXTT9=
EXTT10=
EXTT11=
EXTT12=
EXTT13=
PLAYORDER=
